<svg id="Layer_1" height="512" viewBox="0 0 512 512" width="512" xmlns="http://www.w3.org/2000/svg" data-name="Layer 1">

   <style>path, circle {fill:#a8a8a8}</style>
    <circle cx="116.88" cy="389.21" r="48.05" transform="matrix(.957 -.29 .29 .957 -107.77 50.57)"/>
    <circle cx="392.44" cy="389.21" r="48.05"/>
    <path d="m505.25 229.85a538 538 0 0 0 -48.09-70.7 90.89 90.89 0 0 0 -69.16-33.74c-16-.26-31.77-.41-43.62-.41h-.12a59.46 59.46 0 0 0 -53.08-47.64c-17.25-1.52-84.9-2.62-117.3-2.62s-100 1.1-117.3 2.62a59.46 59.46 0 0 0 -54 54c-1.48 17.25-2.58 66.06-2.58 98.45s1.1 81.19 2.63 98.45a59.47 59.47 0 0 0 41.69 51.58 73.16 73.16 0 0 1 145.6 5c21.7-.16 49.87-.61 71.63-1.24 17.35.54 38.92.94 57.86 1.15a73.17 73.17 0 0 1 145.69-4.15 59.44 59.44 0 0 0 44.33-52.32c1.32-14.88 2.32-43.9 2.57-72.39a51.79 51.79 0 0 0 -6.75-26.04zm-48.69 15.32h-108.78c0-5.38.07-10.55.07-15.36 0-22.32-.53-52.44-1.35-74.65 11.39 0 26.19.16 41.05.4a60.61 60.61 0 0 1 46.17 22.57 498.39 498.39 0 0 1 33.73 47.32 12.86 12.86 0 0 1 -10.89 19.72z"/>
</svg>