<?xml version="1.0" encoding="utf-8"?>
<!-- Generator: Adobe Illustrator 25.0.0, SVG Export Plug-In . SVG Version: 6.00 Build 0)  -->
<svg version="1.1" id="svg11425" xmlns:svg="http://www.w3.org/2000/svg"
	 xmlns="http://www.w3.org/2000/svg" xmlns:xlink="http://www.w3.org/1999/xlink" x="0px" y="0px" viewBox="0 0 512 512"
	 style="enable-background:new 0 0 512 512;" xml:space="preserve">

	<style>path{fill:#b50404}</style>
<path d="M318.6,429.8l-43.3-43.2c-3.2-3.2-7.4-4.9-11.9-4.9c-4.5,0-8.8,1.7-11.9,4.9c-7.9,7.8-15.5,15.4-23.3,23.4
	c-5,5.1-10,5.2-16.3,0.3c-2.3-1.8-4.9-3.8-7.8-5.9c-12.1-9.1-28.7-21.6-47-39.8c-18.4-18.4-30.8-35-39.9-47.1
	c-2.1-2.8-4-5.4-5.8-7.7c-4.8-6.2-4.7-11.2,0.4-16.2l23.3-23.4c6.6-6.6,6.6-17.3,0-23.8l-43.2-43.3c-9.3-9.3-20.4-9.3-29.7,0
	l-10.3,10.3c-1.3,1.3-2,3.1-2,4.9c0,1.9,0.8,3.6,2.2,4.8l55.5,55.5l-5.3,5.3c-10.1,10.1-10.6,22.2-1.5,34.1c1.4,1.8,3,3.9,4.7,6.2
	c9,12,22.5,30.2,42.1,49.8c20.4,20.4,38.9,34.1,51.1,43.1c1.8,1.3,3.5,2.6,5,3.7c12.2,9.2,24,8.6,34.1-1.5l5.7-5.7l40.1,40.9
	c1.8,1.8,4.1,2.5,6.3,1.9c2.4-0.6,4.4-2.6,5.1-5c0.6-2.3,0-4.6-1.7-6.3l-40.2-41l8.1-8c1.3-1.3,3.3-1.4,4.6,0l43.3,43.2
	c4.4,4.4,3.5,7,0,10.6l-20.4,20.4c-8.1,8.1-18.9,8.1-25.4,8.1c-41.6,0-89.1-26.4-141.3-78.6c-52.2-52.2-78.6-99.7-78.6-141.3
	c0-5.2,0-13.8,4.6-21c1.5-2.2,1.7-4.6,0.6-6.8c-1.2-2.3-3.6-3.8-6.1-3.9c-0.1,0-0.1,0-0.2,0c-2.3,0-4.4,1.2-5.6,3.4
	c-6.7,10.6-6.7,21.9-6.7,28.3c0,45.3,27.8,96.1,82.6,150.9c54.8,54.8,105.6,82.6,151,82.6c0,0,0.1,0,0.1,0c7.5,0,22.8-0.1,34.8-12
	l20.4-20.4C327.9,450.2,327.9,439.1,318.6,429.8z M66.2,218.2l5.5-5.5c4.4-4.4,7.1-3.4,10.6,0l43.3,43.3c1.3,1.4,1.3,3.3,0,4.7
	l-8.5,8.5L66.2,218.2z"/>
<g id="g1303_2_">
	<g id="g1309_2_" transform="translate(227.5674,52.3594)">
		<g id="path1311_2_">
			<path d="M-21.7,303.6c-4.3,0-8.4-2-11.1-5.7c-3.5-4.8-3.7-11.1-0.3-16L0,233.6c-23.9-17.7-41.5-41.8-51.1-70.1
				c-19.1-56-2.6-117.4,41.9-156.2C-6.3,4.8-1.9,5.1,0.6,8c2.5,2.9,2.2,7.3-0.7,9.8C-40.3,52.9-55.2,108.4-38,159.1
				c9.4,27.6,27.2,50.7,51.5,67c1.5,1,2.6,2.6,3,4.5c0.3,1.8,0,3.7-1.1,5.2l-36.9,54l87.1-27.4c3.7-1.2,7.6,0.9,8.7,4.6
				c1.1,3.7-0.9,7.6-4.6,8.7L-17.4,303C-18.8,303.4-20.2,303.6-21.7,303.6z"/>
		</g>
	</g>
	<g id="g1313_2_" transform="translate(134.9326,468.0342)">
		<g id="path1315_2_">
			<path d="M188.7-148.2c-2.9,0-5.7-1.9-6.6-4.8c-1.2-3.7,0.8-7.6,4.5-8.8l33.2-10.8c70.3-22,110-96.1,88.5-165.1
				c-10.6-34.1-34-61.9-66-78.3c-32.3-16.6-69.1-19.5-103.6-8.1l-1.3,0.4c-10.2,3.4-10.6,3.5-19.2,9c-3.2,2.1-7.5,1.1-9.6-2.1
				c-2.1-3.2-1.1-7.5,2.1-9.6c9.8-6.3,11.3-6.9,22.4-10.5l1.3-0.4c38.1-12.6,78.7-9.4,114.3,8.9c35.3,18.2,61.2,48.9,72.9,86.6
				c23.7,76.4-20,158.2-97.6,182.5l-33.1,10.8C190.2-148.3,189.4-148.2,188.7-148.2z"/>
		</g>
	</g>
</g>
<g>
	<g>
		<g>
			<path d="M385.5,183.9l-2.1-0.6c-7.8-2.2-14.6-7.1-19.1-13.8l-31.4-46c-2.4-3.5-5.9-6-10-7.2c-9.6-2.7-19.6,2.8-22.3,12.4l-1.2,4
				c-2.3,7.9-10.5,12.5-18.4,10.2c-5.5-1.6-9.7-6.3-10.6-12l-0.4-2.8c-1-6.3-5.6-11.5-11.8-13.3c-8.8-2.5-17.9,2.6-20.4,11.4
				L226,167.8c-4.3,15,4.4,30.7,19.5,35L370,238.3c15,4.3,30.7-4.4,35-19.5C409.3,203.8,400.5,188.1,385.5,183.9z M373,227.8
				l-124.5-35.5c-6.2-1.8-10.7-6.8-12.1-12.6L390,223.5C385.6,227.7,379.2,229.6,373,227.8z M237.1,168.5l11.2-39.3
				c0.8-3,4-4.7,6.9-3.9c2.1,0.6,3.7,2.4,4,4.5l0.4,2.8c1.6,9.9,8.8,18,18.4,20.7c13.7,3.9,28-4,31.9-17.7l1.2-4
				c1.1-3.8,5-6,8.8-4.9c1.6,0.5,3,1.5,3.9,2.8l7.7,11.3l-14.8,8.2l5.3,9.5l15.7-8.7l3.5,5.1l-14.1,7.9l5.3,9.5l15-8.3l3.5,5.1
				l-13.5,7.5l5.3,9.5l14.4-8c5.9,7.5,14.1,13,23.3,15.6l2.1,0.6c8.5,2.4,13.7,10.8,12.4,19.2L237.1,168.5L237.1,168.5z"/>
		</g>
	</g>
</g>
</svg>
