<?xml version="1.0" encoding="utf-8"?>
<!-- Generator: Adobe Illustrator 25.0.0, SVG Export Plug-In . SVG Version: 6.00 Build 0)  -->
<svg version="1.1" id="Layer_1" xmlns="http://www.w3.org/2000/svg" xmlns:xlink="http://www.w3.org/1999/xlink" x="0px" y="0px"
	 viewBox="0 0 289.1 260.8" style="enable-background:new 0 0 289.1 260.8;" xml:space="preserve">
<style type="text/css">
	.st0{fill-rule:evenodd;clip-rule:evenodd;fill:#FFFFFF;}
	.st1{fill:#FFFFFF;}
</style>
<g id="Layer_x0020_1">
	<g id="_1604008854704">
		<path class="st0" d="M273.7,226.3c-1.5,14.5-2.1,9.8-21.7,16.3c-20.4,6.8-62.7,14.8-83.5,13.8c-19.8-1-22.3-5.1-30.8-19.8
			c-14-24-63.7-122.9-89.4-116.4c-11,16.1-8.9,93.9-10.2,121.3l-2.3-0.1c0.7-31.8,3.4-70.3-0.1-101.1C31.5,103,18.9,89.7,14.4,73.5
			c12.4,6,49.7,34.5,62.5,50.7c8.5,9.2,12.5,13,20.4,25.4c15.4,23.7,17.1,32.6,35,57.7c6.9,9.7,11.5,15.1,26.1,18.4
			C194,233.7,238.2,235.3,273.7,226.3z"/>
		<path class="st0" d="M286.3,219.8c-1.5,14.5-7.9,16.2-27.4,22.8c-20.4,6.8-62.8,14.8-83.5,13.8c-19.9-1-22.3-5.1-30.8-19.8
			c-14-24-63.3-130.4-89-123.9c-11,16.2-9.4,108.4-10.6,135.8l-9.3-0.1c0.6-31.8,3.3-77.4-0.1-108.1c-4.1-36.7-22.1-57.5-27-73.6
			c-0.3-1-0.5-1,0.4-0.6c13.4,6.9,62.2,42.2,74.8,58.1c23.2,29.3,34.8,54.3,55.3,83.1c6.9,9.7,11.5,15.1,26.1,18.4
			C200.8,233.7,250.8,228.8,286.3,219.8z"/>
		<path class="st1" d="M2.8,70.4c90.7,11.8,102.8,186.9,258.4,150.2c0.2-0.1-1.2-10.5-1-11.2"/>
		<path class="st1" d="M273.8,192.9c0,0.5-0.1,1.1-0.4,1.8c-1.2,3.2-3.4,6.5-6.5,9.9c-3.3,3.8-6.3,5.9-8.8,6.2
			c-0.5,0.1-1.3,0.1-2.3,0.2c-1,0.1-1.7,0.2-2.2,0.3c-0.2,0-1.1-0.1-2.6-0.4c-1.3,5.8-3.1,11.9-5.6,18.4c-3.5,9-6.6,13.7-9.3,14
			c-1.4,0.2-2.3-1-2.5-3.5c-0.3-3.4,1.7-10,6-19.9c3.1-6.6,6.2-13.2,9.4-19.8l-0.1-0.6c-0.2-2.5-0.5-4.7-0.7-6.5
			c-1.8,4.6-3,6.9-3.5,7c-0.3,0-0.5-0.2-0.6-0.7c0-0.3,0-0.6,0.2-0.9c2.1-4.6,3-8.6,2.7-12c-0.1-0.7-0.3-1.2-0.6-1.6
			c-0.3-0.4-0.5-0.6-0.5-0.6c0-0.6,0.8-1,2.6-1.2c2-0.3,3.1,2,3.5,6.7c0.1,0.7,0.1,1.7,0.2,3.1c0,1.3,0.1,2.3,0.1,2.9
			c1.3-3.7,2.7-7.2,4.4-10.4c2.6-4.8,4.8-7.4,6.8-7.7c1.8-0.2,2.9,1.3,3.2,4.5c0.4,4.1-0.4,9-2.3,14.7c-1.9,5.7-4.1,9.8-6.7,12.3
			c5-0.8,10-6.2,15.3-16.2c0.2-0.4,0.3-0.6,0.5-0.6C273.6,192.3,273.8,192.5,273.8,192.9z M263.1,184.8c-0.2-2.2-0.8-3.1-1.7-3
			c-0.3,0.1-0.6,0.2-0.9,0.3c-2,1.4-3.8,4.9-5.6,10.5c-1.4,4.2-2.4,8.4-3,12.7c0.7,1,1.8,2.1,3.3,3.5c2.4-1.6,4.4-5.2,6-10.8
			C262.8,192.8,263.5,188.4,263.1,184.8z M248.7,205.8c-0.1-0.1-0.1-0.1-0.2-0.1c-0.2,0-0.5,0.4-0.9,1.2c-1.1,2.7-2.9,6.6-5.2,11.8
			c-1,2.2-2.2,5.6-3.7,10c-1.6,5.2-2.4,8.5-2.3,9.9c0.1,0.6,0.3,0.9,0.6,0.9c2.5-0.3,5.5-5.8,9-16.3c0.9-2.8,1.7-7.5,2.4-14.1
			c-0.1-0.3-0.1-0.7-0.2-1C248.3,207.3,248.4,206.6,248.7,205.8z"/>
		<path class="st1" d="M250.4,192.8c0,0.2,0,0.3-0.1,0.5c-0.7,1.8-1.8,3.5-3.4,5c-1.6,1.5-3.2,2.3-4.8,2.5c-1.2,0.2-2.4-0.1-3.4-0.7
			c-2.3,5.7-4.9,8.7-7.9,9.1c-2.1,0.3-3.3-1.1-3.6-4.1c-0.3-4.2,0.7-9.2,3.3-15.2c-0.2-0.8-0.3-1.6-0.4-2.4
			c-0.2-2.6,0.3-5.3,1.5-7.9c1.2-2.7,2.9-4.1,5-4.4c1.4-0.2,2.6,0.7,3.6,2.6c0.8,1.6,1.3,3.3,1.4,5.1c0.3,3.9-0.5,9.1-2.5,15.5
			c0.9,0.5,2,0.7,3.1,0.6c2-0.3,3.8-1.4,5.4-3.5c1.6-2.1,2.3-3.2,2.2-3.2C250.2,192.1,250.4,192.3,250.4,192.8z M239,185.9
			c-0.1-1.6-0.5-3.2-1-4.8c-0.8-2.2-1.7-3.3-2.7-3.2c-1.4,0.2-2.4,1.3-3,3.5c-0.5,1.7-0.6,3.5-0.4,5.4c0.9-1.5,1.8-2.3,2.7-2.4
			c0.9-0.1,1.6,0.1,2.1,0.8c0,0.1,0,0.3,0.1,0.6c0.1,0.2,0.1,0.4,0.1,0.5c0,0.2-0.3,0.4-0.9,0.5c-1.1,0.1-2.1,1.7-3.1,4.6
			c1,2.7,2.6,4.8,4.7,6.3C238.9,192.7,239.3,188.8,239,185.9z M237.2,199.1c-2.1-1.4-3.8-3-5-5c-1.4,4.8-2,8.2-1.8,10.3
			c0.1,1.4,0.7,2.1,1.5,2c0.9-0.1,1.9-1.1,3.1-3.1C236.1,201.8,236.8,200.4,237.2,199.1z"/>
		<path class="st1" d="M231.6,145.6c0.4,4.7-2.1,11.7-7.7,20.8c-2.4,3.8-6.6,10-12.8,18.5c-1.5,1.9-3.5,4.8-6.2,8.9
			c-0.3,0.6-0.8,2.4-1.5,5.4c-0.7,3-1,4.8-0.9,5.5c0.1,0.1,0.1,0.2,0.1,0.3c1.1-2.3,3.1-5.7,5.8-10.1c3-5,5-8.1,6.2-9.3
			c0.5-0.5,1-0.8,1.4-0.9c1.4-0.2,2.1,0.5,2.3,2c-2.2,8-3.2,13-3,15.2c0.2,2.6,1.2,3.7,3.1,3.5c1.8-0.2,3.5-1.5,5.1-3.9
			c1.2-1.5,2.4-3.6,3.7-6.4c1.1-2.3,1.7-3.4,1.9-3.5c0.2,0,0.3,0.2,0.3,0.6c0.1,0.5-0.1,1.1-0.3,1.9c-3.3,8.8-7.2,13.4-11.7,14
			c-3.3,0.4-5.1-1.7-5.5-6.5c-0.3-3.1,0.1-7,1-11.5c-1.5,2-3.3,5-5.5,9c-2.1,3.9-3.6,7.1-4.6,9.7c-0.6,0.7-1.4,1.1-2.3,1.2
			c-1.6,0.2-2.5-0.2-2.6-1.1c-0.1-1.7,0.8-6.2,2.7-13.5c2.9-11.1,6.3-21.5,10.3-31.2c6.1-15,11.5-22.8,16.1-23.4
			C229.8,140.4,231.3,142,231.6,145.6z M228.5,146.8c-0.2-2.4-1-3.5-2.3-3.3c-3.2,0.4-7.3,7.1-12.2,20c-3.3,8.8-6,17.4-8.1,25.7
			c3.7-3.6,8.3-10.2,13.9-20C225.9,158.4,228.8,150.9,228.5,146.8z"/>
		<path class="st1" d="M202.1,192.6c0,0.3-0.1,0.6-0.2,0.9c-2.2,3.7-5.6,6-10.3,6.8c-0.4,2.2-1.4,3.9-2.9,5.1
			c-1.5,1.2-3.2,1.8-5.1,1.7c-2.8-0.1-5.3-1.5-7.6-4.2c-2.3-2.7-3.3-5.6-3.2-8.9c0.1-2.1,0.6-3.1,1.6-3.1c0.6,0.1,1.2,0.6,1.8,1.6
			c1-1.1,2.6-3.8,4.8-7.9c2.2-4.2,4-7.1,5.4-8.9c2.2-2.8,4.4-4.2,6.6-4.1c0.9,0.1,1.7,0.4,2.6,1.1c0.9,0.7,1.3,1.5,1.2,2.5
			c0,0.6-0.7,0.9-2.1,0.8c-1.4-0.1-2.7,0.4-3.9,1.4s-1.8,2.3-1.9,3.9c0,0.6,0.1,1.2,0.2,1.9c0.7,2.5,1.4,4.9,2,7.3
			c0.7,2.9,1,5.4,0.9,7.5c3.6-0.5,6.7-2.5,9.2-6c0.2-0.2,0.3-0.3,0.5-0.3C201.9,191.7,202.1,192,202.1,192.6z M187.9,197
			c0.1-1.6-0.3-4.6-1.2-9.1c-0.9-4.2-1.2-6.8-1-8c-3.4,6-6.4,10.6-8.8,13.9c3.6,2.4,7.3,3.8,11,4.2
			C187.9,197.7,187.9,197.3,187.9,197z M187.3,200.5c-5-0.2-9-1.7-12.1-4.5l-0.3,0.3c1.5,4.9,3.9,7.5,7.5,7.7
			C184.7,204.1,186.4,202.9,187.3,200.5z"/>
		<path class="st1" d="M155.3,166.7c-0.1,0.1-0.2,0.2-0.4,0.2c-1.6,0.8-3.3,1-5.3,0.8c-2-0.3-3.6-1-4.9-2.2c-1-0.9-1.7-2-2.1-3.3
			c-4.9,2.2-8.5,2.2-10.9,0.1c-1.7-1.5-1.8-3.5-0.3-5.9c2.1-3.3,5.8-6.2,11-8.4c0.3-0.7,0.7-1.4,1.1-2.1c1.3-2.1,3.2-3.6,5.6-4.5
			c2.4-0.9,4.4-0.6,6.1,0.9c1.1,1,1.5,2.6,1.2,4.8c-0.3,1.8-0.9,3.5-1.8,5c-2,3.1-5.5,6.2-10.5,9.2c0.4,1.2,1,2.2,2,3
			c1.6,1.5,3.6,2.1,5.9,1.8c2.3-0.2,3.5-0.4,3.4-0.5C155.5,165.9,155.6,166.3,155.3,166.7z M142.2,160.2c-0.8-2.7-1.1-5.4-0.8-7.8
			c-3.8,2.4-6.2,4.3-7.2,6c-0.7,1.2-0.7,2.1,0,2.7c0.7,0.6,2,0.7,4,0.3C139.8,161.3,141.1,160.9,142.2,160.2z M150.9,152.2
			c0.8-1.3,1.5-2.8,2-4.4c0.7-2.3,0.7-3.8-0.1-4.5c-1.1-1-2.5-1-4.1,0.1c-1.3,0.9-2.4,2-3.3,3.6c1.5-0.4,2.6-0.2,3.4,0.5
			c0.7,0.7,1,1.4,1,2.3c0,0.1-0.1,0.2-0.3,0.5c-0.1,0.2-0.1,0.4-0.2,0.5c-0.1,0.2-0.4,0-0.9-0.4c-0.9-0.8-2.5-0.5-4.8,0.8
			c-0.8,2.8-0.8,5.6-0.1,8.5C147,157,149.5,154.5,150.9,152.2z"/>
		<path class="st1" d="M138,150.3c-0.2,0.2-0.5,0.4-0.9,0.5c-2.7,0.6-6,0.5-10-0.3c-4.4-0.9-7.4-2.4-9.1-4.3
			c-2.5-2.9-2-6.5,1.5-10.9c2.7-3.4,6.3-6.2,11-8.2c-3.1-3.5-4-6-2.9-7.4c0.3-0.3,0.6-0.2,1,0.3c0.5,0.6,1.3,1.6,2.4,3
			c1,1.4,1.9,2.5,2.4,3.1c0.7-0.2,3.3-1.2,7.9-3c3.5-1.4,6.1-2.2,7.7-2.1c1.2,0,2.4,0.6,3.4,1.9c1,1.1,1.2,1.9,0.9,2.4
			c0,0.1-0.1,0.1-0.3,0.2c-1.4,0.2-3.3,0.6-5.8,1c-4.4,0.9-8.2,1.9-11.3,3c0.6,0.8,1.4,1.8,2.6,3.1c0.3,0.3,0.8,0.9,1.4,1.5
			c0.6,0.7,1.1,1.2,1.4,1.6c0.5,0.6,0.7,1.1,0.4,1.4c-0.6,0.8-3.3-1.4-7.9-6.5c-1.8,0.5-3.9,1.6-6.4,3.3c-2.5,1.7-4.3,3.3-5.6,4.8
			c-2.2,2.8-2.4,5.1-0.7,7.1c1.4,1.7,3.9,2.8,7.4,3.5c3,0.5,5.7,0.6,8.1,0.1c0.7-0.1,1.2-0.1,1.4,0.3
			C138.2,149.8,138.2,150,138,150.3z"/>
		<path class="st1" d="M122.3,132.3c-0.3,0.3-0.8,0.6-1.5,0.7c-9.1,1.3-15,0.2-17.7-3.2c-2.3-2.9-2.2-5.9,0.4-8.8
			c1.3-1.5,3.5-3.1,6.6-4.6c2.9-1.5,5.3-2.4,7.3-2.7c0.7-0.1,1.1,0,1.5,0.5c0.4,0.5,0.5,1.1,0.5,1.9c0,0.8-0.3,1.4-0.7,1.9
			c-0.2,0.3-0.5,0.4-1,0.5c-5.5,1.3-9.4,3.3-11.7,5.9c-1.6,1.8-1.8,3.4-0.7,4.8c1.2,1.5,3.3,2.5,6.2,2.7c1.9,0.2,4.3,0.1,7.1-0.2
			c2.4-0.3,3.7-0.4,3.7-0.4C122.8,131.5,122.7,131.8,122.3,132.3z"/>
		<path class="st1" d="M130.1,113.2c-0.5,0.6-1.2,0.9-2,0.9c-0.8,0-1.5-0.4-2-1.1c-1-1.3-1-2.5,0.1-3.7c0.5-0.6,1.2-0.9,2-0.9
			c0.8,0,1.5,0.4,2,1.1C131.1,110.7,131.1,112,130.1,113.2z"/>
		<path class="st1" d="M109.4,114.9c-0.3,0.3-0.8,0.6-1.5,0.8c-7.7,1.9-13.1,1-16.1-2.9c-2.4-3.1-2-6.3,1.2-9.9
			c2.8-3.2,5.8-5.2,9.2-6.1c-5.7-0.6-12.5-0.1-20.4,1.6c-0.7,0.1-1,0.1-1.2-0.1c-0.4-0.5-0.2-1.2,0.7-2.1c0.2-0.3,0.4-0.4,0.7-0.5
			c3.1-1.4,7.3-3.9,12.4-7.5c0.8-0.6,2.1-1.6,3.7-2.7c0.5-0.2,1-0.2,1.8,0.1c0.8,0.2,1.3,0.6,1.7,1.1c0.3,0.4,0.3,0.7,0.1,1
			c-0.5,0.5-4.8,3.1-13.1,7.8c1.2-0.1,4.6-0.3,10.3-0.4c1.9-0.1,4.7-0.1,8.3-0.1c0.7,0.1,1.1,0.3,1.5,0.8c0.9,1.2,0.9,2.4-0.1,3.6
			c-0.2,0.3-0.6,0.5-1,0.6c-6.4,1.6-10.8,3.8-13.2,6.5c-1.7,1.9-1.8,3.8-0.3,5.7c1.2,1.5,3,2.4,5.6,2.6c1.7,0.2,3.8,0.1,6.5-0.3
			c2.2-0.3,3.3-0.4,3.4-0.3C109.8,114.3,109.7,114.6,109.4,114.9z"/>
		<path class="st1" d="M91.8,88.2c-0.1,0.1-0.2,0.2-0.3,0.3c-1.4,1.2-3.1,1.9-5,2.1c-2,0.2-3.7-0.1-5.2-0.9c-1.1-0.6-2-1.5-2.7-2.7
			c-4.4,3.4-7.9,4.4-10.6,2.9c-1.9-1.1-2.4-3-1.3-5.7c1.4-3.8,4.5-7.5,9.2-11.1c0.2-0.8,0.4-1.6,0.7-2.3c0.9-2.4,2.5-4.4,4.6-5.9
			c2.2-1.5,4.2-1.7,6.2-0.7c1.3,0.7,1.9,2.2,2,4.4c0,1.9-0.3,3.6-0.9,5.3c-1.4,3.6-4.3,7.5-8.7,11.7c0.6,1.1,1.4,1.9,2.4,2.5
			c1.8,1,3.9,1.1,6.1,0.3c2.3-0.8,3.3-1.3,3.2-1.3C91.8,87.4,91.9,87.8,91.8,88.2z M84.9,75.2c0.6-1.5,1-3.1,1.2-4.8
			c0.3-2.4-0.1-3.9-0.9-4.4c-1.2-0.7-2.6-0.3-4,1.1c-1.1,1.2-2,2.6-2.6,4.4c1.4-0.8,2.5-0.9,3.4-0.4c0.8,0.5,1.3,1.1,1.4,2
			c0,0.1-0.1,0.2-0.2,0.5c0,0.2-0.1,0.4-0.1,0.5c-0.1,0.2-0.4,0.1-0.9-0.2c-1-0.5-2.5,0.1-4.6,2c-0.3,2.9,0.2,5.7,1.4,8.3
			C81.9,80.9,83.9,77.8,84.9,75.2z M77.8,85.3c-1.2-2.5-2-4.9-2.2-7.4c-3.2,3.3-5.2,5.8-5.9,7.7c-0.5,1.3-0.4,2.2,0.5,2.7
			c0.8,0.5,2.1,0.2,4-0.7C75.7,87,76.9,86.2,77.8,85.3z"/>
		<path class="st1" d="M78.5,18.4c-0.2,3.5-2.7,6.5-7.6,8.9c-3.6,1.9-7.4,3-11.2,3.4c4.3,1.6,7.9,3.7,10.7,6.1
			c4,3.5,5.9,7.4,5.7,11.7c-0.2,3.4-1.9,7.1-5.1,10.9c1.6,2.7,2.4,4.6,2.3,5.8c-0.1,1-0.4,1.5-1.1,1.4c-0.3,0-0.5-0.2-0.7-0.6
			c-0.8-2.1-1.5-3.6-2.3-4.7c-4.2,4.1-9.5,7-16,8.8c-5.7,1.5-11.5,2-17.5,1.4c-4.1-0.3-7.8-1.6-11.3-3.9c-4.6-2.8-6.7-6.3-6.5-10.6
			c0.3-4.9,2.5-8.8,6.5-11.6c3.4-2.4,7.3-3.5,11.6-3.4c3-7,6.2-13.8,9.7-20.3c1.1-2.2,2.9-5.3,5.3-9.2c1.1-1.5,2.7-2.2,4.8-2
			c0.9,0.1,1.2,0.4,1.2,1c0,0.2-0.1,0.4-0.2,0.6C50.5,21,44.6,31.1,39.1,42.5c13.5,1.5,23.4,6.1,29.7,13.7c2.1-2.9,3.3-5.7,3.4-8.4
			c0.3-4.6-2.1-8.4-7.1-11.5c-3.9-2.3-8-3.7-12.5-4.1c-0.2,0-0.5-0.1-1-0.1C51.1,32,50.8,32,50.5,32c-0.8-0.1-1.2-0.4-1.1-1.1
			c0.1-1.3,1-2.1,2.8-2.3c1-0.1,2.4-0.2,4.4-0.4c7.4-1.2,12.9-3.5,16.5-7.1c1.5-1.5,2.3-2.8,2.3-4c0.2-2.6-2.5-4.9-8.1-6.7
			c-3.7-1.2-7.6-2-11.7-2.4c-10.9-0.9-21.1,0.5-30.8,4.5c-0.3,0.1-0.6,0.2-0.7,0.2c-0.5-0.1-0.7-0.4-0.7-1c0.1-0.9,0.5-1.8,1.4-2.8
			s1.7-1.6,2.4-2c6.5-2.5,14.6-3.3,24.3-2.5c5.8,0.5,11.1,1.6,16,3.4C75.1,10.6,78.8,14.1,78.5,18.4z M67,58.5
			c-3.2-3.7-7.3-6.8-12.3-9.2c-4.8-2.2-9.5-3.6-14.2-4c-0.9-0.1-1.8-0.1-2.6-0.1c-4.2,9-6.3,15.1-6.5,18.3c0,0.2,0,0.5,0,0.9
			c0,0.4,0.1,0.7,0,0.9c-0.1,0.9-0.4,1.4-1.1,1.3c-1-0.1-1.4-1.1-1.3-3.1c0.2-3.3,2.1-9.3,5.7-18.1c-8.1,0.9-12.4,5.1-12.8,12.4
			c-0.2,3.4,1.5,6.2,5,8.4c2.8,1.8,5.8,2.8,8.9,3.1C49.2,70.4,59.6,66.8,67,58.5z"/>
	</g>
</g>
</svg>
