<?xml version="1.0" encoding="UTF-8"?>
<!DOCTYPE svg PUBLIC "-//W3C//DTD SVG 1.1//EN" "http://www.w3.org/Graphics/SVG/1.1/DTD/svg11.dtd">
<!-- Creator: CorelDRAW X8 -->
<svg xmlns="http://www.w3.org/2000/svg" xml:space="preserve" width="102mm" height="92mm" version="1.1" style="shape-rendering:geometricPrecision; text-rendering:geometricPrecision; image-rendering:optimizeQuality; fill-rule:evenodd; clip-rule:evenodd"
viewBox="0 0 10200 9200"
 xmlns:xlink="http://www.w3.org/1999/xlink">
 <defs>
  <style type="text/css">
   <![CDATA[
    .fil2 {fill:none}
    .fil0 {fill:#E31E24}
    .fil1 {fill:#020202}
    .fil3 {fill:#2B2A29;fill-rule:nonzero}
   ]]>
  </style>
 </defs>
 <g id="Layer_x0020_1">
  <metadata id="CorelCorpID_0Corel-Layer"/>
  <g id="_1604008854704">
   <path class="fil0" d="M9656 7982c-54,511 -74,344 -765,576 -718,240 -2213,523 -2946,488 -700,-34 -785,-180 -1088,-698 -494,-846 -2248,-4336 -3154,-4106 -388,569 -315,3311 -359,4279l-82 -2c23,-1123 119,-2481 -3,-3567 -148,-1318 -593,-1787 -752,-2359 438,212 1753,1218 2204,1788 299,325 440,457 718,896 543,835 605,1151 1234,2036 243,342 405,534 921,650 1261,283 2820,337 4072,19z"/>
   <path class="fil1" d="M10100 7753c-54,510 -277,573 -968,805 -719,240 -2214,523 -2946,488 -701,-34 -785,-180 -1088,-698 -494,-846 -2234,-4600 -3139,-4371 -389,570 -330,3824 -374,4792l-329 -2c22,-1123 118,-2729 -4,-3815 -145,-1293 -778,-2030 -952,-2597 -11,-36 -16,-37 13,-22 473,242 2195,1488 2639,2048 819,1033 1229,1916 1952,2932 243,342 405,534 921,650 1260,283 3023,108 4275,-210z"/>
   <path class="fil2" d="M100 2485c3199,416 3628,6594 9116,5298 7,-2 -42,-371 -34,-394"/>
   <path class="fil3" d="M9660 6806c1,17 -3,38 -13,64 -43,112 -120,228 -231,349 -118,135 -221,208 -310,219 -18,3 -45,5 -82,8 -34,4 -60,8 -78,10 -8,1 -39,-3 -93,-14 -45,204 -111,420 -198,649 -124,317 -233,482 -327,495 -51,7 -80,-35 -88,-125 -11,-120 59,-354 211,-702 109,-232 219,-465 331,-699l-2 -22c-8,-88 -16,-165 -24,-230 -63,161 -105,243 -125,246 -12,1 -19,-6 -20,-23 -1,-10 1,-20 6,-31 75,-163 107,-304 96,-424 -2,-24 -9,-43 -22,-58 -12,-14 -19,-21 -19,-21 -1,-20 29,-34 91,-42 69,-9 110,69 125,235 3,24 4,61 6,109 1,47 3,82 5,104 45,-132 97,-254 156,-368 90,-170 170,-260 241,-270 64,-8 102,45 112,159 13,144 -13,317 -80,518 -66,202 -145,347 -237,435 175,-28 354,-218 538,-571 7,-13 12,-20 16,-21 8,-1 13,6 15,21zm-378 -287c-7,-76 -27,-111 -61,-107 -10,2 -20,6 -30,12 -69,48 -135,172 -198,371 -48,147 -83,296 -106,447 23,34 63,75 118,125 84,-58 155,-185 213,-380 54,-185 76,-341 64,-468zm-510 742c-2,-2 -4,-3 -6,-3 -8,1 -18,15 -30,41 -40,94 -101,233 -182,417 -36,78 -79,196 -130,354 -58,183 -85,300 -81,351 2,22 9,32 21,31 89,-12 195,-204 318,-576 31,-98 60,-263 86,-496 -3,-12 -5,-24 -6,-36 -3,-30 0,-57 10,-83z"/>
   <path class="fil3" d="M8834 6803c1,6 -1,11 -5,17 -24,65 -64,124 -121,175 -57,52 -114,81 -171,88 -43,6 -83,-2 -121,-23 -82,200 -174,307 -278,320 -75,10 -116,-38 -126,-144 -12,-147 26,-326 115,-537 -7,-28 -12,-56 -14,-84 -8,-93 9,-186 53,-280 43,-94 102,-146 176,-156 49,-6 91,24 127,90 29,56 46,116 51,180 12,139 -17,321 -87,546 33,19 70,26 111,21 70,-9 133,-51 189,-125 55,-75 81,-112 77,-112 15,-2 23,6 24,24zm-401 -245c-5,-57 -17,-113 -37,-171 -29,-79 -60,-117 -94,-113 -49,7 -84,47 -105,123 -16,59 -20,122 -13,189 30,-53 62,-82 96,-86 32,-4 56,5 73,29 1,3 1,9 2,20 3,7 4,13 5,18 1,8 -10,13 -31,16 -38,5 -74,59 -108,162 36,94 92,168 167,221 39,-169 54,-305 45,-408zm-66 465c-75,-48 -133,-106 -176,-176 -50,170 -71,291 -65,363 4,51 23,75 54,71 30,-4 67,-40 110,-108 38,-54 64,-104 77,-150z"/>
   <path class="fil3" d="M8169 5135c15,167 -75,412 -270,734 -83,135 -233,352 -452,651 -52,67 -124,171 -217,313 -11,22 -28,86 -52,192 -24,106 -35,171 -33,194 2,2 4,6 4,11 40,-81 108,-200 204,-358 105,-175 178,-285 219,-329 18,-18 34,-28 49,-30 48,-6 75,18 80,72 -78,281 -114,460 -107,537 8,90 44,131 110,122 62,-8 122,-53 181,-137 41,-52 85,-127 132,-227 38,-81 60,-121 66,-122 7,-1 11,6 12,22 2,18 -2,40 -10,68 -117,309 -255,473 -414,494 -115,15 -179,-61 -194,-229 -10,-110 2,-246 35,-406 -54,72 -118,177 -193,316 -74,138 -128,252 -161,342 -22,24 -48,38 -80,42 -58,7 -88,-6 -91,-39 -5,-59 27,-218 97,-477 103,-391 224,-757 364,-1101 215,-530 404,-805 568,-826 91,-12 142,45 153,171zm-109 45c-7,-84 -34,-124 -81,-118 -114,15 -258,249 -431,704 -118,312 -213,614 -284,907 129,-126 292,-361 489,-704 218,-382 320,-645 307,-789z"/>
   <path class="fil3" d="M7128 6793c0,11 -3,21 -7,31 -76,131 -197,211 -365,241 -15,77 -50,137 -104,181 -54,44 -114,64 -180,60 -98,-5 -187,-54 -267,-148 -80,-94 -118,-198 -114,-315 3,-75 21,-111 55,-110 22,2 43,21 65,58 36,-39 92,-133 169,-280 77,-148 140,-252 189,-314 79,-100 156,-148 233,-144 30,2 60,15 90,40 30,25 45,54 43,88 0,21 -25,30 -74,27 -49,-3 -95,14 -137,49 -42,35 -64,82 -66,138 0,21 2,43 8,67 24,87 48,172 71,256 24,102 34,191 32,266 126,-17 235,-87 325,-212 6,-7 12,-11 16,-11 13,1 19,12 18,32zm-499 156c2,-57 -12,-163 -43,-320 -31,-147 -43,-241 -35,-282 -121,211 -225,375 -312,492 127,85 257,134 388,149 1,-13 1,-26 2,-39zm-21 124c-177,-7 -319,-60 -427,-159l-10 11c52,174 139,264 263,270 83,5 141,-36 174,-122z"/>
   <path class="fil3" d="M5479 5880c-3,4 -7,7 -13,8 -55,28 -117,37 -188,27 -70,-10 -128,-35 -174,-78 -34,-31 -59,-70 -75,-117 -173,78 -300,79 -384,2 -59,-54 -63,-124 -10,-208 74,-118 203,-217 387,-297 11,-26 24,-50 38,-73 46,-74 112,-128 197,-160 84,-33 156,-22 216,33 39,36 53,93 42,170 -11,65 -33,123 -65,175 -70,111 -194,219 -372,325 14,42 37,77 69,107 56,52 126,73 209,65 82,-8 122,-14 119,-17 12,11 13,24 4,38zm-464 -227c-28,-97 -38,-189 -29,-275 -133,83 -217,153 -253,211 -26,41 -26,73 0,97 23,22 70,26 140,12 59,-8 106,-23 142,-45zm310 -284c29,-46 52,-98 69,-156 25,-82 23,-135 -4,-160 -39,-36 -88,-35 -146,2 -45,30 -84,72 -116,127 52,-14 91,-8 119,17 25,23 37,51 36,82 -1,2 -4,8 -9,16 -3,8 -5,13 -8,18 -3,6 -14,1 -31,-15 -30,-28 -87,-18 -170,29 -27,98 -28,198 -3,299 124,-90 212,-177 263,-259z"/>
   <path class="fil3" d="M4869 5302c-6,7 -16,13 -31,17 -94,21 -211,18 -352,-9 -154,-33 -262,-84 -322,-153 -88,-102 -71,-231 52,-386 94,-120 224,-217 388,-291 -108,-125 -142,-212 -104,-260 9,-11 21,-8 36,10 19,21 47,57 84,107 37,50 66,87 86,110 24,-8 117,-43 279,-106 125,-51 216,-76 270,-74 42,-1 83,21 121,66 34,39 44,67 31,84 -1,2 -4,4 -9,6 -48,8 -116,20 -205,36 -155,31 -288,67 -399,107 20,27 50,63 90,110 11,12 28,30 51,53 22,25 38,44 49,56 18,22 23,38 14,49 -22,29 -115,-48 -280,-228 -62,18 -137,57 -225,116 -87,59 -153,116 -196,170 -76,98 -85,181 -24,251 51,59 138,99 262,122 106,19 202,20 286,3 24,-5 41,-2 50,9 6,7 5,16 -2,25z"/>
   <path class="fil3" d="M4316 4666c-11,12 -28,20 -52,23 -321,45 -529,8 -623,-112 -81,-103 -76,-207 15,-312 46,-54 125,-108 234,-164 101,-52 187,-83 258,-94 23,-4 40,1 52,16 13,16 19,39 18,67 -1,29 -9,51 -23,67 -8,9 -19,15 -34,18 -194,46 -332,115 -412,208 -56,64 -64,120 -26,169 43,54 115,87 218,97 67,8 151,5 251,-6 86,-11 130,-15 132,-13 7,9 5,21 -8,36z"/>
   <path class="fil3" d="M4588 3993c-19,21 -42,31 -71,31 -29,-1 -53,-14 -72,-38 -35,-45 -34,-89 3,-132 18,-21 42,-32 71,-31 28,1 52,14 71,38 36,45 35,89 -2,132z"/>
   <path class="fil3" d="M3860 4052c-10,12 -28,22 -52,28 -273,68 -462,34 -569,-104 -83,-108 -69,-224 42,-350 98,-113 206,-184 324,-215 -200,-21 -440,-2 -719,57 -23,4 -37,4 -41,-2 -13,-17 -6,-41 23,-73 7,-9 15,-14 23,-16 111,-51 256,-139 438,-264 29,-22 74,-55 132,-97 16,-7 37,-6 64,2 27,8 47,21 60,38 11,13 11,25 2,36 -16,18 -171,110 -463,275 42,-5 163,-10 363,-13 68,-3 166,-4 294,-5 23,3 40,12 52,27 33,43 32,85 -4,126 -7,9 -20,16 -36,21 -225,57 -380,133 -464,229 -59,67 -63,134 -10,202 41,53 107,84 199,93 59,8 135,5 229,-10 76,-12 116,-15 121,-9 4,6 1,14 -8,24z"/>
   <path class="fil3" d="M3237 3113c-2,5 -6,8 -12,11 -48,41 -108,66 -178,75 -71,8 -132,-2 -184,-31 -39,-22 -70,-54 -94,-96 -155,121 -280,155 -375,102 -67,-38 -83,-106 -46,-202 51,-134 160,-264 326,-390 6,-28 14,-55 24,-80 32,-85 87,-154 164,-208 77,-53 149,-61 217,-23 45,25 68,77 71,156 1,66 -10,128 -33,187 -48,126 -150,264 -306,413 21,38 49,67 86,87 64,36 136,40 215,10 80,-29 118,-45 114,-47 13,7 17,19 11,36zm-241 -460c20,-52 34,-109 41,-170 9,-86 -2,-138 -33,-155 -44,-25 -92,-12 -142,39 -39,41 -69,92 -91,155 48,-28 88,-32 119,-15 29,16 46,40 50,71 -1,2 -3,8 -6,18 -1,8 -3,14 -4,19 -3,7 -14,5 -33,-6 -35,-19 -89,4 -162,72 -9,103 8,201 50,293 105,-120 176,-228 211,-321zm-253 357c-44,-87 -70,-174 -77,-261 -114,115 -184,206 -209,271 -18,47 -13,79 16,95 27,16 74,8 140,-24 56,-22 99,-49 130,-81z"/>
   <path class="fil3" d="M2771 650c-8,124 -97,229 -269,315 -128,67 -260,107 -396,121 151,58 277,130 379,216 142,124 209,261 200,411 -7,121 -67,249 -180,385 56,95 83,164 81,205 -2,36 -15,53 -38,51 -11,-1 -19,-8 -25,-21 -28,-73 -54,-128 -80,-167 -147,143 -335,246 -564,309 -200,53 -406,70 -619,51 -143,-12 -276,-58 -400,-136 -161,-100 -237,-224 -228,-374 10,-173 87,-309 230,-408 120,-83 256,-123 408,-120 107,-247 220,-486 341,-717 39,-77 101,-186 186,-326 38,-54 94,-78 168,-71 30,2 44,14 43,35 0,7 -3,15 -8,22 -219,311 -426,666 -621,1067 478,54 827,216 1046,484 75,-103 115,-202 121,-297 9,-163 -74,-298 -249,-407 -136,-82 -283,-130 -441,-143 -6,-1 -18,-2 -35,-3 -17,-2 -30,-3 -38,-4 -28,-2 -41,-15 -40,-38 3,-47 35,-74 98,-81 34,-2 86,-7 155,-14 261,-42 456,-125 583,-249 52,-52 80,-99 82,-140 6,-93 -89,-172 -285,-235 -132,-43 -269,-70 -412,-83 -383,-33 -746,19 -1088,158 -11,4 -20,6 -26,6 -17,-2 -25,-13 -24,-34 2,-30 18,-63 49,-98 31,-35 60,-58 86,-69 228,-89 514,-118 856,-88 205,17 393,57 565,119 268,93 398,216 389,368zm-408 1412c-112,-132 -257,-240 -434,-326 -168,-79 -336,-126 -502,-141 -32,-3 -63,-4 -93,-4 -147,319 -224,534 -230,645 -1,8 0,18 1,31 1,14 2,24 1,32 -2,33 -14,49 -38,47 -34,-3 -49,-39 -45,-109 7,-116 74,-329 202,-640 -287,32 -438,179 -453,439 -7,119 52,217 178,296 99,63 204,99 315,109 472,41 838,-85 1098,-379z"/>
  </g>
 </g>
</svg>
